<svg width="70" height="79" viewBox="0 0 70 79" fill="none" xmlns="http://www.w3.org/2000/svg">
<path d="M54.2431 14.401L53.5465 15.1184L53.8311 15.3949L54.2279 15.4009L54.2431 14.401ZM54.2431 14.401L54.228 15.4009L54.2282 15.4009L54.2289 15.4009L54.232 15.401L54.2439 15.4012L54.2908 15.4019L54.4689 15.4046L55.1071 15.4146C55.6365 15.4229 56.3453 15.4343 57.0629 15.4465C57.7807 15.4586 58.5064 15.4715 59.0702 15.4828C59.3523 15.4885 59.5924 15.4937 59.7702 15.4983C59.8038 15.4991 59.8341 15.4999 59.8611 15.5007C60.1345 17.3617 62.1525 31.0127 64.1625 44.6057L67.1132 64.5589L68.0843 71.1256L68.3197 72.7173L48.4079 77.6673L1.11465 69.4878L1.24055 68.5143L1.89833 63.429C2.44362 59.2137 3.17291 53.577 3.90887 47.891C5.38068 36.5201 6.878 24.962 6.98551 24.1706C7.05939 23.6367 7.11047 23.3049 7.17386 23.064C7.2323 22.8419 7.28047 22.784 7.29923 22.7633C7.32506 22.7347 7.39975 22.6659 7.66 22.5554C7.92826 22.4416 8.29697 22.3219 8.86184 22.1444L8.86185 22.1445L8.86906 22.1421C8.86863 22.1423 8.86871 22.1422 8.86942 22.142C8.87198 22.1412 8.88277 22.1378 8.90668 22.1304L9.02093 22.0949L9.44385 21.9638L10.9946 21.4834L16.3634 19.8207L16.9701 19.6327L17.0579 19.0037C17.5025 15.8187 19.0921 11.629 21.1948 8.28841C24.1916 3.5276 27.7323 1.09856 31.0634 1.00317L31.0646 1.00313C32.7653 0.95239 34.1306 1.51646 35.21 2.66884C35.2854 2.75164 35.3605 2.83962 35.4426 2.93818L35.7763 3.3386L36.2956 3.2944C36.3171 3.29257 36.338 3.29078 36.3582 3.28904C36.549 3.27268 36.6865 3.26089 36.8243 3.26089H36.8243H36.8244H36.8244H36.8245H36.8245H36.8246H36.8246H36.8247H36.8247H36.8248H36.8248H36.8249H36.8249H36.825H36.825H36.8251H36.8251H36.8252H36.8252H36.8253H36.8253H36.8254H36.8254H36.8255H36.8255H36.8256H36.8256H36.8256H36.8257H36.8257H36.8258H36.8258H36.8259H36.8259H36.826H36.826H36.8261H36.8261H36.8261H36.8262H36.8262H36.8263H36.8263H36.8264H36.8264H36.8265H36.8265H36.8265H36.8266H36.8266H36.8267H36.8267H36.8268H36.8268H36.8268H36.8269H36.8269H36.827H36.827H36.8271H36.8271H36.8271H36.8272H36.8272H36.8273H36.8273H36.8273H36.8274H36.8274H36.8275H36.8275H36.8275H36.8276H36.8276H36.8277H36.8277H36.8278H36.8278H36.8278H36.8279H36.8279H36.828H36.828H36.828H36.8281H36.8281H36.8282H36.8282H36.8282H36.8283H36.8283H36.8284H36.8284H36.8284H36.8285H36.8285H36.8285H36.8286H36.8286H36.8287H36.8287H36.8287H36.8288H36.8288H36.8289H36.8289H36.8289H36.829H36.829H36.8291H36.8291H36.8291H36.8292H36.8292H36.8292H36.8293H36.8293H36.8294H36.8294H36.8294H36.8295H36.8295H36.8296H36.8296H36.8296H36.8297H36.8297H36.8297H36.8298H36.8298H36.8299H36.8299H36.8299H36.83H36.83H36.8301H36.8301H36.8301H36.8302H36.8302H36.8302H36.8303H36.8303H36.8304H36.8304H36.8304H36.8305H36.8305H36.8306H36.8306H36.8306H36.8307H36.8307H36.8307H36.8308H36.8308H36.8309H36.8309H36.8309H36.831H36.831H36.8311H36.8311H36.8311H36.8312H36.8312H36.8313H36.8313H36.8313H36.8314H36.8314H36.8315H36.8315H36.8315H36.8316H36.8316H36.8317H36.8317H36.8317H36.8318H36.8318H36.8319H36.8319H36.8319H36.832H36.832H36.8321H36.8321H36.8321H36.8322H36.8322H36.8323H36.8323H36.8324H36.8324H36.8324H36.8325H36.8325H36.8326H36.8326H36.8326H36.8327H36.8327H36.8328H36.8328H36.8329H36.8329H36.8329H36.833H36.833H36.8331H36.8331H36.8332H36.8332H36.8333H36.8333H36.8333H36.8334H36.8334H36.8335H36.8335H36.8336H36.8336H36.8337H36.8337H36.8337H36.8338H36.8338H36.8339H36.8339H36.834H36.834H36.8341H36.8341H36.8342H36.8342H36.8343H36.8343H36.8344H36.8344H36.8345H36.8345C39.3272 3.26486 41.4718 4.65676 43.0117 7.59549L43.0118 7.59572C43.4931 8.51365 43.8342 9.43573 44.0685 10.1945L44.3637 11.1508L45.3197 10.8548L47.0474 10.3199L47.5115 10.1761L47.6334 10.1382L47.6675 10.1275L47.6714 10.1262C47.7684 10.0985 47.9686 10.0603 48.1647 10.0662C48.3299 10.0712 48.3909 10.1028 48.3984 10.1058C48.6607 10.3673 49.9374 11.6103 51.1457 12.7853C51.7603 13.3831 52.3605 13.9663 52.807 14.4002L53.3442 14.922L53.4937 15.0672L53.533 15.1053L53.5431 15.1151L53.5456 15.1176L53.5462 15.1182L53.5464 15.1184L54.2431 14.401ZM42.8939 11.6059L43.8479 11.3109L43.5544 10.3565C43.239 9.33144 42.6956 7.91492 41.8189 6.66407C40.9421 5.41329 39.6643 4.23608 37.8684 3.89588L36.099 3.56071L36.7498 5.23979C37.5856 7.39624 37.8116 9.94195 37.8394 11.8288L37.859 13.1643L39.135 12.7694C39.6084 12.6228 40.069 12.4802 40.5151 12.3421C41.3652 12.0789 42.1624 11.8321 42.8939 11.6059ZM36.6004 13.5553L37.2956 13.3401L37.3046 12.6124C37.3312 10.4747 37.108 7.16396 35.9491 4.74537L35.5404 3.89239L34.666 4.25303C33.361 4.79125 32.299 5.71175 31.5693 6.49546C29.6085 8.59971 28.0609 11.7415 27.2488 14.8513L26.7946 16.5908L28.512 16.0593C30.0895 15.571 31.6643 15.0835 33.1954 14.6094C34.3618 14.2483 35.5028 13.895 36.6004 13.5553ZM31.0892 1.54054L31.0822 1.54074C27.6435 1.64026 24.6394 4.33069 22.4167 7.47138C20.1562 10.6655 18.4899 14.6187 17.8055 17.8133L17.448 19.4817L19.0783 18.9782C20.2975 18.6017 21.579 18.2047 22.8957 17.7968C23.8235 17.5094 24.7688 17.2165 25.7219 16.9216L26.2964 16.7439L26.4088 16.1532C27.1212 12.4084 28.9074 8.56071 31.1747 6.12778C32.0417 5.19806 32.9479 4.50381 33.8641 4.02822L35.378 3.24239L33.9529 2.30515C33.1125 1.75254 32.1522 1.51723 31.0892 1.54054Z" stroke="#FFDB6E" stroke-width="2"/>
<path d="M54.2453 14.4032L53.5486 15.1206L53.8333 15.3971L54.2301 15.4031L54.2453 14.4032ZM54.2453 14.4032L53.5485 15.1206L53.5484 15.1204L53.5477 15.1198L53.5452 15.1173L53.5351 15.1076L53.4958 15.0694L53.3463 14.9242L52.8092 14.4024C52.3627 13.9686 51.7625 13.3853 51.1478 12.7875C50.5547 12.2107 49.9451 11.6175 49.4471 11.1321L49.4491 77.4074L68.3219 72.7172L68.0865 71.1257L67.1153 64.5593L64.1646 44.6068C62.1547 31.0144 60.1366 17.3639 59.8632 15.5029C59.8362 15.5022 59.806 15.5014 59.7723 15.5005C59.5946 15.4959 59.3544 15.4907 59.0723 15.485C58.5086 15.4737 57.7828 15.4608 57.065 15.4487C56.3474 15.4365 55.6387 15.4252 55.1092 15.4168L54.4711 15.4068L54.2929 15.4041L54.2461 15.4034L54.2341 15.4032L54.2311 15.4031L54.2303 15.4031L54.2301 15.4031L54.2453 14.4032Z" stroke="#FFDB6E" stroke-width="2"/>
<path d="M33.688 33.1115C33.4458 33.0333 33.1684 32.9507 32.8611 32.8701C31.7116 32.5686 30.1141 32.2878 28.3631 32.3981L28.3628 32.3981C25.7775 32.5616 24.2582 33.4837 23.4431 34.6791C22.6615 35.8254 22.6675 37.0255 22.6972 37.4891L33.688 33.1115ZM33.688 33.1115L35.6054 25.9381C35.44 25.891 35.2478 25.8416 35.0291 25.7934C34.0785 25.584 32.6198 25.3961 30.6623 25.522L30.661 25.5221C25.5623 25.8435 21.9506 27.7747 19.6642 30.4155C17.3688 33.0669 16.3458 36.5063 16.5634 39.95L16.5634 39.95C16.69 41.9556 17.2793 43.3979 18.0738 44.5279C18.8803 45.6751 19.9282 46.5445 21.0516 47.3663C21.3051 47.5517 21.5686 47.7386 21.8356 47.9279C22.7012 48.5418 23.6042 49.1821 24.3252 49.8868C25.3183 50.8576 26.0888 52.0543 26.193 53.7034L26.193 53.7038C26.2467 54.5592 26.0128 55.5736 25.3902 56.4139C24.7447 57.285 23.7147 57.9212 22.3046 58.0107L22.3043 58.0107C20.3063 58.1369 18.1753 57.272 16.6458 56.4755C16.0922 56.1871 15.5953 55.8959 15.1838 55.6395L14.0117 60.6253C14.0992 60.7017 14.2018 60.7884 14.3191 60.8832C14.7962 61.2686 15.5155 61.7852 16.4645 62.2895C18.3587 63.2962 21.167 64.2542 24.8088 64.0244C27.7623 63.8379 30.2211 62.5715 31.8949 60.5229C33.5721 58.4703 34.515 55.5641 34.2915 52.0174C34.0192 47.6981 31.4958 45.3244 28.7948 43.4592C28.2249 43.0656 27.6583 42.7023 27.1007 42.3447C26.9925 42.2753 26.8846 42.2061 26.7771 42.137C26.126 41.7183 25.4849 41.2984 24.9223 40.867C23.836 40.0341 22.7912 38.9753 22.6972 37.4896L33.688 33.1115Z" stroke="#FFDB6E" stroke-width="2"/>
</svg>
